D:\school\WTK\thesis\model\3dpredictsim\Results\batch_windlass\Pog_s1_tmt_bCst_d00_k1000_WL20_ig24_act_TTC_GRF.mot
nRows=12
nColumns=19

name D:\school\WTK\thesis\model\3dpredictsim\Results\batch_windlass\Pog_s1_tmt_bCst_d00_k1000_WL20_ig24_act_TTC_GRF.mot
datacolumns 19
datarows 12
range 0.6049848863 0.7380815613
endheader
time 	ground_force_vx	ground_force_vy	ground_force_vz	ground_force_px	ground_force_py	ground_force_pz	1_ground_force_vx	1_ground_force_vy	1_ground_force_vz	1_ground_force_px	1_ground_force_py	1_ground_force_pz	ground_torque_x	ground_torque_y	ground_torque_z	1_ground_torque_x	1_ground_torque_y	1_ground_torque_z
        0.6049848863	       79.9541274069	      343.3317944683	        5.5395502710	        0.3848844158	        0.0000000000	        0.0303895134	      -69.6764058653	       56.3550689541	      -16.2847464009	        0.9185347616	        0.0000000000	       -0.0603250927	        0.0000000000	        0.0000000000	        0.0000000000	        0.0000000000	        0.0000000000	        0.0000000000	
        0.6170845840	       45.1126093187	      234.7562516496	       14.0083596175	        0.3975856853	        0.0000000000	        0.0245565395	     -139.1983656491	      147.3242956818	      -47.8082004879	        0.9292432489	        0.0000000000	       -0.0592933865	        0.0000000000	        0.0000000000	        0.0000000000	        0.0000000000	        0.0000000000	        0.0000000000	
        0.6291842818	       30.2989547374	      190.3373333279	       15.7107260190	        0.4008649396	        0.0000000000	        0.0227298653	      -81.8158724901	      396.1342191972	       -5.8701399289	        0.9454992652	        0.0000000000	       -0.0597926662	        0.0000000000	        0.0000000000	        0.0000000000	        0.0000000000	        0.0000000000	        0.0000000000	
        0.6412839795	       24.5386092276	      140.9714809681	       16.3479513778	        0.4011212380	        0.0000000000	        0.0228925965	     -104.9948884857	      690.6415700767	       21.4314494836	        0.9563117312	        0.0000000000	       -0.0612045336	        0.0000000000	        0.0000000000	        0.0000000000	        0.0000000000	        0.0000000000	        0.0000000000	
        0.6533836772	       12.1428464706	       78.7124312662	       14.1319415795	        0.4011871252	        0.0000000000	        0.0231550914	     -144.0029395556	      885.7126178469	       28.5431007448	        0.9650717185	        0.0000000000	       -0.0614862343	        0.0000000000	        0.0000000000	        0.0000000000	        0.0000000000	        0.0000000000	        0.0000000000	
        0.6654833749	       -5.6989079724	       14.3145463288	        2.6219355668	        0.3975032230	        0.0000000000	        0.0226010347	     -174.7767594539	      984.9018327177	       29.1709669128	        0.9766886453	        0.0000000000	       -0.0602441860	        0.0000000000	        0.0000000000	        0.0000000000	        0.0000000000	        0.0000000000	        0.0000000000	
        0.6775830727	        0.0906764706	       -0.0800415354	        0.0067546213	        0.0000000000	        0.0000000000	        0.0000000000	     -167.8155346515	      965.5705270444	       27.6506012276	        0.9854822997	        0.0000000000	       -0.0589163035	        0.0000000000	        0.0000000000	        0.0000000000	        0.0000000000	        0.0000000000	        0.0000000000	
        0.6896827704	        0.3214491890	       -0.2313806912	        0.0387569450	        0.0000000000	        0.0000000000	        0.0000000000	     -142.0446996926	      869.9462938332	       24.7339209271	        0.9901258084	        0.0000000000	       -0.0580623943	        0.0000000000	        0.0000000000	        0.0000000000	        0.0000000000	        0.0000000000	        0.0000000000	
        0.7017824681	       -0.9737697021	        0.6319930983	       -0.1112180635	        0.0000000000	        0.0000000000	        0.0000000000	     -121.9617803284	      786.2766295987	       20.5606368070	        0.9932811188	        0.0000000000	       -0.0576359262	        0.0000000000	        0.0000000000	        0.0000000000	        0.0000000000	        0.0000000000	        0.0000000000	
        0.7138821658	       -0.1616738464	        0.0966377747	       -0.0169484313	        0.0000000000	        0.0000000000	        0.0000000000	     -104.5610449124	      734.2777090394	       19.1140502423	        0.9962937915	        0.0000000000	       -0.0573590919	        0.0000000000	        0.0000000000	        0.0000000000	        0.0000000000	        0.0000000000	        0.0000000000	
        0.7259818636	       -0.1517650668	        0.0860687427	       -0.0142299458	        0.0000000000	        0.0000000000	        0.0000000000	      -89.4340370793	      695.3242113144	       19.2275628009	        0.9992895254	        0.0000000000	       -0.0571444681	        0.0000000000	        0.0000000000	        0.0000000000	        0.0000000000	        0.0000000000	        0.0000000000	
        0.7380815613	       -0.1397394444	        0.0767249216	       -0.0115779519	        0.0000000000	        0.0000000000	        0.0000000000	      -76.5003597537	      662.7789176700	       19.5338454633	        1.0024155768	        0.0000000000	       -0.0569693780	        0.0000000000	        0.0000000000	        0.0000000000	        0.0000000000	        0.0000000000	        0.0000000000	
